<?xml version="1.0" encoding="UTF-8"?>
<svg id="Layer_2" data-name="Layer 2" xmlns="http://www.w3.org/2000/svg" viewBox="0 0 714.75 793.45">
  <defs>
    <style>
      .cls-1 {
        fill: none;
        stroke: #fff;
        stroke-miterlimit: 10;
        stroke-width: 7px;
      }

      .cls-2 {
        fill: #004d00;
        opacity: .63;
      }

      .cls-3 {
        fill: #ff6f61;
      }
    </style>
  </defs>
  <g id="Layer_1-2" data-name="Layer 1">
    <g>
      <g>
        <path class="cls-2" d="m673.05,92.88H217.7V26.42c0-6.08-4.93-11.01-11.01-11.01h-115.57c-6.08,0-11.01,4.93-11.01,11.01v66.46H31.02c-15.2,0-27.52,12.32-27.52,27.52v642.04c0,15.2,12.32,27.52,27.52,27.52h642.04c15.2,0,27.52-12.32,27.52-27.52V120.4c0-15.2-12.32-27.52-27.52-27.52Zm-350.86,470.49h-119.24v-119.24h119.24v119.24Zm0-156.84h-119.24v-119.24h119.24v119.24Zm154.09,156.84h-119.24v-119.24h119.24v119.24Zm0-156.84h-119.24v-119.24h119.24v119.24Z"/>
        <path class="cls-1" d="m673.05,92.88H217.7V26.42c0-6.08-4.93-11.01-11.01-11.01h-115.57c-6.08,0-11.01,4.93-11.01,11.01v66.46H31.02c-15.2,0-27.52,12.32-27.52,27.52v642.04c0,15.2,12.32,27.52,27.52,27.52h642.04c15.2,0,27.52-12.32,27.52-27.52V120.4c0-15.2-12.32-27.52-27.52-27.52Zm-350.86,470.49h-119.24v-119.24h119.24v119.24Zm0-156.84h-119.24v-119.24h119.24v119.24Zm154.09,156.84h-119.24v-119.24h119.24v119.24Zm0-156.84h-119.24v-119.24h119.24v119.24Z"/>
      </g>
      <path class="cls-3" d="m687.24,77.47H231.88V11.01c0-6.08-4.93-11.01-11.01-11.01h-115.57c-6.08,0-11.01,4.93-11.01,11.01v66.46h-49.1c-15.2,0-27.52,12.32-27.52,27.52v642.04c0,15.2,12.32,27.52,27.52,27.52h642.04c15.2,0,27.52-12.32,27.52-27.52V104.99c0-15.2-12.32-27.52-27.52-27.52Zm-350.86,470.49h-119.24v-119.24h119.24v119.24Zm0-156.84h-119.24v-119.24h119.24v119.24Zm154.09,156.84h-119.24v-119.24h119.24v119.24Zm0-156.84h-119.24v-119.24h119.24v119.24Z"/>
    </g>
  </g>
</svg>