<?xml version="1.0" standalone="no"?>
<!DOCTYPE svg PUBLIC "-//W3C//DTD SVG 20010904//EN"
 "http://www.w3.org/TR/2001/REC-SVG-20010904/DTD/svg10.dtd">
<svg version="1.0" xmlns="http://www.w3.org/2000/svg"
 width="250.000000pt" height="250.000000pt" viewBox="0 0 250.000000 250.000000"
 preserveAspectRatio="xMidYMid meet">
<metadata>
Created by potrace 1.14, written by Peter Selinger 2001-2017
</metadata>
<g transform="translate(0.000000,250.000000) scale(0.100000,-0.100000)"
fill="#000000" stroke="none">
<path d="M267 1563 c-3 -7 -1 -524 2 -545 0 -5 17 -8 36 -8 l35 0 0 125 0 125
123 0 122 0 0 -122 0 -123 38 -3 37 -3 0 281 0 281 -37 -3 -38 -3 0 -117 1
-118 -123 0 -123 0 0 120 0 120 -34 0 c-19 0 -37 -3 -39 -7z"/>
<path d="M927 1390 c-46 -14 -94 -56 -117 -105 -46 -96 -7 -211 90 -263 93
-50 215 -10 268 88 24 45 24 51 10 168 -1 8 -20 33 -44 57 -57 59 -130 78
-207 55z m150 -93 c43 -39 52 -122 18 -173 -23 -36 -57 -54 -103 -56 -150 -6
-178 221 -32 260 41 10 84 -1 117 -31z"/>
<path d="M1392 1390 c-69 -29 -82 -68 -82 -241 l0 -139 35 0 35 0 0 133 c0
156 8 181 60 185 25 2 42 -3 58 -18 21 -20 22 -29 22 -160 l0 -140 34 0 35 0
3 145 c3 130 5 146 23 159 29 22 77 20 103 -4 21 -19 22 -30 22 -160 l0 -140
35 0 35 0 0 146 c0 130 -2 150 -20 179 -41 66 -142 84 -207 37 l-28 -20 -28
20 c-32 23 -101 33 -135 18z"/>
<path d="M2048 1379 c-114 -58 -144 -211 -62 -308 76 -89 214 -93 294 -10 27
29 60 103 49 113 -2 2 -16 6 -32 10 -25 6 -29 3 -47 -38 -29 -69 -110 -97
-178 -62 -79 41 -80 191 -1 231 38 20 102 19 128 -2 21 -18 21 -19 -73 -71
l-94 -53 14 -29 15 -28 120 69 c66 38 124 69 129 69 12 0 0 30 -25 62 -50 62
-164 85 -237 47z"/>
<path d="M230 821 c0 -5 9 -7 20 -4 11 3 20 7 20 9 0 2 -9 4 -20 4 -11 0 -20
-4 -20 -9z"/>
<path d="M430 811 c0 -25 6 -27 13 -6 4 8 2 17 -3 20 -6 4 -10 -3 -10 -14z"/>
<path d="M555 821 c-3 -5 0 -13 6 -17 8 -4 9 -3 5 4 -10 16 17 15 33 0 10 -11
11 -10 6 5 -8 18 -40 23 -50 8z"/>
<path d="M771 820 c-1 -23 15 -45 23 -31 4 6 3 11 -3 11 -5 0 -12 8 -14 18 -3
12 -5 13 -6 2z"/>
<path d="M891 821 c-10 -7 -7 -9 12 -8 15 1 27 5 27 10 0 10 -22 9 -39 -2z"/>
<path d="M1053 815 c0 -8 4 -12 9 -9 5 3 6 10 3 15 -9 13 -12 11 -12 -6z"/>
<path d="M1172 816 c2 -14 -4 -21 -22 -26 -15 -3 -20 -9 -13 -13 6 -4 20 1 32
11 16 13 18 21 11 32 -9 12 -10 12 -8 -4z"/>
<path d="M1350 808 c0 -12 3 -19 6 -15 4 3 14 -3 24 -15 11 -14 16 -16 16 -7
0 8 -11 24 -23 36 l-23 22 0 -21z"/>
<path d="M1488 823 c7 -3 16 -2 19 1 4 3 -2 6 -13 5 -11 0 -14 -3 -6 -6z"/>
<path d="M1599 811 c6 -10 8 -20 6 -23 -2 -2 5 -9 15 -16 18 -11 18 -10 -1 23
-22 36 -37 49 -20 16z"/>
<path d="M1718 823 c6 -2 18 -2 25 0 6 3 1 5 -13 5 -14 0 -19 -2 -12 -5z"/>
<path d="M2047 823 c-3 -5 5 -8 18 -8 13 0 21 3 18 8 -2 4 -10 7 -18 7 -8 0
-16 -3 -18 -7z"/>
<path d="M2173 804 c1 -34 26 -43 35 -12 2 10 8 15 13 12 5 -3 6 3 2 13 -6 15
-9 14 -17 -10 l-10 -27 -12 27 -13 28 2 -31z"/>
<path d="M2306 822 c-3 -5 -3 -17 -1 -28 2 -10 4 -22 4 -26 1 -5 9 -8 19 -8
15 1 15 2 -3 12 -19 11 -19 11 0 19 17 7 18 8 3 8 -10 1 -18 5 -18 10 0 5 8
12 18 14 15 4 15 5 0 6 -9 0 -19 -3 -22 -7z"/>
<path d="M1005 811 c-3 -5 -2 -12 3 -15 5 -3 9 1 9 9 0 17 -3 19 -12 6z"/>
<path d="M1908 793 c3 -16 7 -22 9 -15 3 6 17 13 31 13 l27 2 -25 4 c-14 3
-30 9 -36 14 -8 7 -10 1 -6 -18z"/>
<path d="M1473 796 c0 -8 8 -11 20 -8 14 4 16 7 5 13 -19 12 -25 11 -25 -5z"/>
<path d="M1720 796 c0 -8 4 -17 9 -20 5 -4 7 3 4 14 -6 23 -13 26 -13 6z"/>
<path d="M228 793 c6 -2 18 -2 25 0 6 3 1 5 -13 5 -14 0 -19 -2 -12 -5z"/>
<path d="M463 780 c6 -8 12 -16 13 -18 1 -1 4 5 6 15 4 13 0 19 -13 19 -14 0
-16 -3 -6 -16z"/>
<path d="M931 784 c0 -11 3 -14 6 -6 3 7 2 16 -1 19 -3 4 -6 -2 -5 -13z"/>
<path d="M2082 788 c2 -8 -6 -13 -19 -12 -12 0 -20 -3 -17 -8 8 -13 30 -9 43
6 8 10 9 16 1 21 -6 4 -9 1 -8 -7z"/>
<path d="M1050 781 c0 -8 -8 -11 -20 -8 -11 3 -20 1 -20 -4 0 -13 37 -11 45 2
4 6 4 13 1 16 -3 4 -6 1 -6 -6z"/>
<path d="M2216 773 c-6 -14 -5 -15 5 -6 7 7 10 15 7 18 -3 3 -9 -2 -12 -12z"/>
<path d="M888 768 c5 -5 16 -8 23 -6 8 3 3 7 -10 11 -17 4 -21 3 -13 -5z"/>
<path d="M568 763 c6 -2 18 -2 25 0 6 3 1 5 -13 5 -14 0 -19 -2 -12 -5z"/>
<path d="M1478 763 c6 -2 18 -2 25 0 6 3 1 5 -13 5 -14 0 -19 -2 -12 -5z"/>
</g>
</svg>
